<?xml version="1.0" encoding="UTF-8"?>
<svg width="800" height="200" viewBox="0 0 800 200" xmlns="http://www.w3.org/2000/svg">
  <!-- Background Rectangles -->
  <rect x="20" y="80" width="120" height="60" rx="10" fill="#e8f0fe" stroke="#4285f4" stroke-width="2"/>
  <rect x="200" y="80" width="120" height="60" rx="10" fill="#e8f0fe" stroke="#4285f4" stroke-width="2"/>
  <rect x="380" y="80" width="120" height="60" rx="10" fill="#e8f0fe" stroke="#4285f4" stroke-width="2"/>
  <rect x="560" y="80" width="120" height="60" rx="10" fill="#e8f0fe" stroke="#4285f4" stroke-width="2"/>
  <rect x="660" y="20" width="120" height="40" rx="10" fill="#fef0e8" stroke="#fbbc05" stroke-width="2"/>
  <rect x="660" y="140" width="120" height="40" rx="10" fill="#e6f4ea" stroke="#34a853" stroke-width="2"/>
  
  <!-- Process Arrows -->
  <path d="M140,110 H200" stroke="#4285f4" stroke-width="2" fill="none" stroke-linecap="round" stroke-linejoin="round"/>
  <path d="M320,110 H380" stroke="#4285f4" stroke-width="2" fill="none" stroke-linecap="round" stroke-linejoin="round"/>
  <path d="M500,110 H560" stroke="#4285f4" stroke-width="2" fill="none" stroke-linecap="round" stroke-linejoin="round"/>
  <path d="M680,80 V60" stroke="#fbbc05" stroke-width="2" fill="none" stroke-linecap="round" stroke-linejoin="round"/>
  <path d="M680,140 V120" stroke="#34a853" stroke-width="2" fill="none" stroke-linecap="round" stroke-linejoin="round"/>

  <!-- Arrow Heads -->
  <polygon points="195,110 185,105 185,115" fill="#4285f4"/>
  <polygon points="375,110 365,105 365,115" fill="#4285f4"/>
  <polygon points="555,110 545,105 545,115" fill="#4285f4"/>
  <polygon points="680,65 675,75 685,75" fill="#fbbc05"/>
  <polygon points="680,135 675,125 685,125" fill="#34a853"/>

  <!-- Text Labels -->
  <text x="80" y="115" font-family="Arial" font-size="14" text-anchor="middle" fill="#333">허밍 입력</text>
  <text x="260" y="115" font-family="Arial" font-size="14" text-anchor="middle" fill="#333">음성 분석</text>
  <text x="440" y="115" font-family="Arial" font-size="14" text-anchor="middle" fill="#333">피치 감지</text>
  <text x="620" y="115" font-family="Arial" font-size="14" text-anchor="middle" fill="#333">MIDI 변환</text>
  <text x="720" y="40" font-family="Arial" font-size="12" text-anchor="middle" fill="#333">노이즈 필터링</text>
  <text x="720" y="160" font-family="Arial" font-size="12" text-anchor="middle" fill="#333">정확도 개선</text>
  
  <!-- Small Icons -->
  <circle cx="50" y="110" r="15" fill="#4285f4" opacity="0.2"/>
  <path d="M45,110 C45,105 55,105 55,110" stroke="#4285f4" stroke-width="2" fill="none"/>
  
  <circle cx="230" y="110" r="15" fill="#4285f4" opacity="0.2"/>
  <path d="M223,105 L237,105 M223,110 L237,110 M223,115 L237,115" stroke="#4285f4" stroke-width="1.5" fill="none"/>
  
  <circle cx="410" y="110" r="15" fill="#4285f4" opacity="0.2"/>
  <path d="M403,103 L417,117 M403,117 L417,103" stroke="#4285f4" stroke-width="1.5" fill="none"/>
  
  <circle cx="590" y="110" r="15" fill="#4285f4" opacity="0.2"/>
  <rect x="583" y="103" width="14" height="14" stroke="#4285f4" stroke-width="1.5" fill="none"/>
</svg> 